<svg width="24" height="23" viewBox="0 0 24 23" fill="none" xmlns="http://www.w3.org/2000/svg">
<g id="vuesax/linear/message">
<g id="message">
<path id="Vector" d="M8.25915 18.0769H7.77332C3.88668 18.0769 1.94336 17.1255 1.94336 12.3684V7.61133C1.94336 3.80567 3.88668 1.90283 7.77332 1.90283H15.5466C19.4332 1.90283 21.3766 3.80567 21.3766 7.61133V12.3684C21.3766 16.1741 19.4332 18.0769 15.5466 18.0769H15.0608C14.7596 18.0769 14.4681 18.2196 14.2834 18.4575L12.826 20.3603C12.1847 21.1976 11.1353 21.1976 10.494 20.3603L9.03648 18.4575C8.88101 18.2482 8.5215 18.0769 8.25915 18.0769Z" stroke="white" stroke-width="1.83488" stroke-miterlimit="10" stroke-linecap="round" stroke-linejoin="round"/>
<path id="Vector_2" d="M15.543 10.4656H15.5517" stroke="white" stroke-width="2.4465" stroke-linecap="round" stroke-linejoin="round"/>
<path id="Vector_3" d="M11.6563 10.4656H11.665" stroke="white" stroke-width="2.4465" stroke-linecap="round" stroke-linejoin="round"/>
<path id="Vector_4" d="M7.7676 10.4656H7.77633" stroke="white" stroke-width="2.4465" stroke-linecap="round" stroke-linejoin="round"/>
</g>
</g>
</svg>
