<svg xmlns="http://www.w3.org/2000/svg" width="24" height="23" viewBox="0 0 24 23" fill="none">
<path d="M15.5467 6.97705H8.11141H7.77344V11.9961L10.8152 15.2227H12.843L15.5467 12.3546V6.97705Z" fill="white" fill-opacity="0.8"/>
<path d="M11.6601 14.747C13.8074 14.747 15.5467 13.0439 15.5467 10.9413V5.7085C15.5467 3.60587 13.8074 1.90283 11.6601 1.90283C9.51271 1.90283 7.77344 3.60587 7.77344 5.7085V10.9413C7.77344 13.0439 9.51271 14.747 11.6601 14.747Z" stroke="white" stroke-width="1.83488" stroke-linecap="round" stroke-linejoin="round"/>
<path d="M4.22656 9.18115V10.7986C4.22656 14.8135 7.55936 18.0769 11.6598 18.0769C15.7602 18.0769 19.093 14.8135 19.093 10.7986V9.18115" stroke="white" stroke-width="1.83488" stroke-linecap="round" stroke-linejoin="round"/>
<path d="M11.6602 18.0769V20.9312" stroke="white" stroke-width="1.83488" stroke-linecap="round" stroke-linejoin="round"/>
<line x1="2.35355" y1="2.64645" x2="20.3536" y2="20.6464" stroke="white"/>
</svg>