<svg
                  xmlns="http://www.w3.org/2000/svg"
                  width="28"
                  height="28"
                  viewBox="0 0 28 28"
                  fill="none"
                >
                  <path
                    d="M18.6668 8.55554H9.73929H9.3335V14.7101L12.9857 18.6667H15.4205L18.6668 15.1497V8.55554Z"
                    fill="white"
                    fill-opacity="0.8"
                  />
                  <path
                    d="M14.0002 18.0834C16.5785 18.0834 18.6668 15.995 18.6668 13.4167V7.00004C18.6668 4.42171 16.5785 2.33337 14.0002 2.33337C11.4218 2.33337 9.3335 4.42171 9.3335 7.00004V13.4167C9.3335 15.995 11.4218 18.0834 14.0002 18.0834Z"
                    stroke="white"
                    stroke-width="2.25"
                    stroke-linecap="round"
                    stroke-linejoin="round"
                  />
                  <path
                    d="M5.07568 11.2583V13.2416C5.07568 18.165 9.07735 22.1666 14.0007 22.1666C18.924 22.1666 22.9257 18.165 22.9257 13.2416V11.2583"
                    stroke="white"
                    stroke-width="2.25"
                    stroke-linecap="round"
                    stroke-linejoin="round"
                  />
                  <path
                    d="M14 22.1666V25.6666"
                    stroke="white"
                    stroke-width="2.25"
                    stroke-linecap="round"
                    stroke-linejoin="round"
                  />
                </svg>