<svg width="28" height="28" viewBox="0 0 28 28" fill="none" xmlns="http://www.w3.org/2000/svg">
<g id="vuesax/linear/video">
<g id="video">
<path id="Vector" d="M14.6185 23.8233H7.24516C3.5585 23.8233 2.3335 21.3733 2.3335 18.9116V9.0883C2.3335 5.40164 3.5585 4.17664 7.24516 4.17664H14.6185C18.3052 4.17664 19.5302 5.40164 19.5302 9.0883V18.9116C19.5302 22.5983 18.2935 23.8233 14.6185 23.8233Z" stroke="white" stroke-width="2.25" stroke-linecap="round" stroke-linejoin="round"/>
<path id="Vector_2" d="M22.7736 19.95L19.5303 17.675V10.3134L22.7736 8.03836C24.3603 6.93003 25.6669 7.6067 25.6669 9.55503V18.445C25.6669 20.3934 24.3603 21.07 22.7736 19.95Z" stroke="white" stroke-width="2.25" stroke-linecap="round" stroke-linejoin="round"/>
<path id="Vector_3" d="M13.417 12.8333C14.3835 12.8333 15.167 12.0498 15.167 11.0833C15.167 10.1168 14.3835 9.33325 13.417 9.33325C12.4505 9.33325 11.667 10.1168 11.667 11.0833C11.667 12.0498 12.4505 12.8333 13.417 12.8333Z" stroke="white" stroke-width="2.25" stroke-linecap="round" stroke-linejoin="round"/>
</g>
</g>
</svg>
