<svg width="27" height="24" viewBox="0 0 27 24" fill="none" xmlns="http://www.w3.org/2000/svg">
<path d="M15.1749 20.4758H9.03405C5.9636 20.4758 4.94336 18.4779 4.94336 16.4704V8.45945C4.94336 5.45297 5.9636 4.45398 9.03405 4.45398H15.1749C18.2454 4.45398 19.2656 5.45297 19.2656 8.45945V16.4704C19.2656 19.4769 18.2357 20.4758 15.1749 20.4758Z" stroke="white" stroke-width="1.83488" stroke-linecap="round" stroke-linejoin="round"/>
<path d="M21.9668 17.3171L19.2656 15.4619V9.45844L21.9668 7.60318C23.2883 6.69933 24.3766 7.25116 24.3766 8.84002V16.0898C24.3766 17.6787 23.2883 18.2305 21.9668 17.3171Z" stroke="white" stroke-width="1.83488" stroke-linecap="round" stroke-linejoin="round"/>
<path d="M14.1743 11.5136C14.9792 11.5136 15.6318 10.8746 15.6318 10.0864C15.6318 9.29825 14.9792 8.6593 14.1743 8.6593C13.3693 8.6593 12.7168 9.29825 12.7168 10.0864C12.7168 10.8746 13.3693 11.5136 14.1743 11.5136Z" stroke="white" stroke-width="1.83488" stroke-linecap="round" stroke-linejoin="round"/>
<path d="M1 1L23 23" stroke="white"/>
</svg>
