<svg width="243" height="49" viewBox="0 0 243 49" fill="none" xmlns="http://www.w3.org/2000/svg">
<mask id="mask0_1570_2314" style="mask-type:luminance" maskUnits="userSpaceOnUse" x="0" y="0" width="72" height="49">
<path d="M71.19 0H0V48.1227H71.19V0Z" fill="white"/>
</mask>
<g mask="url(#mask0_1570_2314)">
<path fill-rule="evenodd" clip-rule="evenodd" d="M64.6621 40.9097V26.8504C64.664 24.9869 64.4357 23.1304 63.9825 21.3232C63.9798 21.3028 63.9739 21.2829 63.9649 21.2644C62.7286 16.4132 59.9182 12.1132 55.9771 9.04263C52.036 5.97204 47.1885 4.30565 42.1992 4.30628H23.5503C20.4918 4.30434 17.4907 5.14001 14.8705 6.72326C12.2501 8.30651 10.11 10.5773 8.68049 13.291C9.27448 14.7634 9.96743 16.1936 10.7545 17.5717C11.2195 18.3919 11.7152 19.192 12.2402 19.9706C11.6432 19.0935 11.0828 18.1888 10.561 17.2587C9.77104 15.8615 9.07561 14.4116 8.47948 12.9188C7.32082 15.1354 6.6602 17.5845 6.54498 20.0903C6.52734 20.3645 6.52734 20.6447 6.52734 20.9248V20.9249C6.52734 21.521 6.55086 22.1171 6.59202 22.7013C6.66241 23.6059 6.78413 24.5055 6.95658 25.3959C6.9562 25.3991 6.95653 25.4024 6.95754 25.4055C6.95856 25.4086 6.96024 25.4114 6.96246 25.4137C6.96285 25.4303 6.96687 25.4466 6.97422 25.4614V25.4734C6.97422 25.4734 6.9801 25.4734 6.97422 25.4793V25.4853H6.9801C6.98598 25.5449 6.99773 25.6045 7.00949 25.6641L7.0095 25.6641C7.01823 25.7216 7.03342 25.789 7.05029 25.8637C7.05616 25.8897 7.06223 25.9166 7.0683 25.9443C8.19502 31.0075 10.9871 35.5315 14.9856 38.7729C18.9842 42.0142 23.9514 43.7802 29.071 43.7805H64.6621V40.9191C64.5927 40.5984 64.5191 40.2788 64.4412 39.9604C64.5191 40.2756 64.5927 40.5921 64.6621 40.9097ZM21.7297 29.5228C21.7445 29.533 21.7592 29.5431 21.774 29.5533C22.3459 30.0557 22.9687 30.4953 23.632 30.8648C23.6379 30.8707 23.6379 30.8707 23.6438 30.8707C24.0604 31.1073 24.4926 31.3144 24.9374 31.4907C26.251 32.0272 27.6548 32.3004 29.071 32.2955H53.3315V26.668C53.3329 25.7703 53.2283 24.8757 53.0199 24.0033V23.9854C52.7185 22.7397 52.2116 21.5546 51.5205 20.4802C51.3179 20.1623 51.0992 19.8554 50.8654 19.5609C50.6887 19.4294 50.5106 19.2994 50.3313 19.1711C49.291 18.0522 48.0319 17.1608 46.6326 16.5527C45.2332 15.9446 43.724 15.633 42.1992 15.6372H23.5503C22.0843 15.6381 20.6787 16.2234 19.6426 17.2643C18.6065 18.3053 18.0248 19.7166 18.0254 21.1879C18.0235 22.8051 18.3714 24.4033 19.0451 25.8723C19.6822 27.2615 20.5962 28.5037 21.7297 29.5228Z" fill="#00B152"/>
<g style="mix-blend-mode:multiply" opacity="0.3">
<path d="M0.545608 26.0818C0.538435 26.0659 0.533598 26.0489 0.53125 26.0316C0.538427 26.0387 0.538431 26.0531 0.545608 26.0674V26.0818Z" fill="black"/>
</g>
<g style="mix-blend-mode:screen" opacity="0.4">
<path d="M70.1058 20.6989C70.0125 20.462 69.7398 19.7299 69.345 18.6175C69.0292 17.95 68.7134 17.1246 68.2398 16.2347C67.9957 15.7897 67.7374 15.316 67.4646 14.8208C67.1919 14.3256 66.8402 13.8447 66.5172 13.3208C66.1703 12.7792 65.7941 12.2569 65.3904 11.7561C65.1895 11.4906 64.9813 11.225 64.7732 10.9523C64.5435 10.6939 64.3139 10.4356 64.0842 10.17C63.8545 9.90445 63.6105 9.63889 63.3737 9.36616C63.1081 9.11496 62.8426 8.86376 62.577 8.60538C62.3114 8.34701 62.0459 8.08863 61.7732 7.83025C61.4861 7.58623 61.1918 7.34221 60.8975 7.09817C60.6033 6.85415 60.309 6.59578 60.0004 6.36612C59.6918 6.13645 59.3616 5.91394 59.0387 5.68428C58.4071 5.21059 57.7181 4.82302 57.0291 4.40675C55.6268 3.5886 54.1544 2.89687 52.6295 2.33973C51.8615 2.05982 51.0721 1.84452 50.3041 1.59332C49.5146 1.4139 48.7251 1.22728 47.9356 1.06939C47.1462 0.976083 46.3854 0.839725 45.5887 0.760776C44.7992 0.717712 43.9595 0.653123 43.2346 0.631591C40.091 0.581352 37.1628 0.502383 34.6508 0.40908C32.1388 0.330132 30.0502 0.200962 28.5861 0.136368C27.122 0.0717735 26.2822 2.1896e-07 26.2822 2.1896e-07H43.4428C49.5547 -0.000770516 55.4929 2.03321 60.3207 5.78113C65.1486 9.52908 68.5913 14.7776 70.1058 20.6989Z" fill="white"/>
</g>
</g>
<path d="M73.4025 33.5613V14.768H75.6577V33.5613H73.4025ZM77.8974 33.5613V20.2449H79.9378L80.0721 22.6344C80.5016 21.7932 81.1191 21.1309 81.9246 20.6477C82.73 20.1644 83.6428 19.9228 84.663 19.9228C86.2381 19.9228 87.491 20.406 88.4217 21.3725C89.3703 22.3212 89.8446 23.7888 89.8446 25.7755V33.5613H87.5894V26.0172C87.5894 23.2429 86.4439 21.8558 84.1529 21.8558C83.0074 21.8558 82.0498 22.2764 81.2802 23.1176C80.5285 23.941 80.1526 25.1223 80.1526 26.6615V33.5613H77.8974ZM96.9126 33.5613C95.6955 33.5613 94.738 33.266 94.0399 32.6754C93.3419 32.0847 92.9929 31.0198 92.9929 29.4805V22.1511H90.684V20.2449H92.9929L93.2882 17.0501H95.2481V20.2449H99.1678V22.1511H95.2481V29.4805C95.2481 30.3217 95.4181 30.8945 95.7582 31.1988C96.0983 31.4851 96.6979 31.6283 97.557 31.6283H98.953V33.5613H96.9126ZM106.042 33.8835C104.771 33.8835 103.644 33.5971 102.659 33.0244C101.675 32.4337 100.896 31.6194 100.324 30.5813C99.7687 29.5432 99.4913 28.3171 99.4913 26.9031C99.4913 25.5071 99.7687 24.29 100.324 23.2519C100.878 22.1959 101.648 21.3815 102.632 20.8087C103.635 20.2181 104.789 19.9228 106.096 19.9228C107.384 19.9228 108.494 20.2181 109.425 20.8087C110.373 21.3815 111.098 22.1422 111.6 23.0908C112.101 24.0394 112.351 25.0596 112.351 26.1514C112.351 26.3483 112.342 26.5452 112.324 26.7421C112.324 26.9389 112.324 27.1627 112.324 27.4132H101.72C101.773 28.4335 102.006 29.2836 102.418 29.9638C102.847 30.626 103.375 31.1272 104.002 31.4672C104.646 31.8073 105.326 31.9773 106.042 31.9773C106.973 31.9773 107.751 31.7626 108.378 31.333C109.004 30.9034 109.461 30.3217 109.747 29.5879H111.975C111.617 30.8229 110.928 31.852 109.908 32.6754C108.906 33.4808 107.617 33.8835 106.042 33.8835ZM106.042 21.829C104.968 21.829 104.011 22.1601 103.169 22.8223C102.346 23.4667 101.872 24.4153 101.746 25.6682H110.123C110.069 24.469 109.658 23.5293 108.888 22.8492C108.118 22.169 107.17 21.829 106.042 21.829ZM113.729 33.5613V20.2449H115.77L115.958 22.7955C116.37 21.9184 116.996 21.2204 117.837 20.7014C118.678 20.1823 119.716 19.9228 120.951 19.9228V22.2854H120.334C119.546 22.2854 118.822 22.4285 118.159 22.7149C117.497 22.9834 116.969 23.4488 116.575 24.111C116.182 24.7732 115.985 25.6861 115.985 26.8494V33.5613H113.729ZM125.711 33.5613L120.664 20.2449H123.026L127.027 31.3867L131.054 20.2449H133.363L128.315 33.5613H125.711ZM135.631 17.2917C135.183 17.2917 134.807 17.1485 134.503 16.8621C134.217 16.5579 134.074 16.182 134.074 15.7346C134.074 15.305 134.217 14.947 134.503 14.6606C134.807 14.3743 135.183 14.2311 135.631 14.2311C136.06 14.2311 136.427 14.3743 136.732 14.6606C137.036 14.947 137.188 15.305 137.188 15.7346C137.188 16.182 137.036 16.5579 136.732 16.8621C136.427 17.1485 136.06 17.2917 135.631 17.2917ZM134.503 33.5613V20.2449H136.758V33.5613H134.503ZM145.061 33.8835C143.79 33.8835 142.663 33.5971 141.678 33.0244C140.694 32.4337 139.915 31.6194 139.343 30.5813C138.788 29.5432 138.51 28.3171 138.51 26.9031C138.51 25.5071 138.788 24.29 139.343 23.2519C139.898 22.1959 140.667 21.3815 141.652 20.8087C142.654 20.2181 143.808 19.9228 145.115 19.9228C146.404 19.9228 147.513 20.2181 148.444 20.8087C149.393 21.3815 150.118 22.1422 150.619 23.0908C151.12 24.0394 151.37 25.0596 151.37 26.1514C151.37 26.3483 151.361 26.5452 151.344 26.7421C151.344 26.9389 151.344 27.1627 151.344 27.4132H140.739C140.792 28.4335 141.025 29.2836 141.437 29.9638C141.866 30.626 142.394 31.1272 143.021 31.4672C143.665 31.8073 144.345 31.9773 145.061 31.9773C145.992 31.9773 146.771 31.7626 147.397 31.333C148.023 30.9034 148.48 30.3217 148.766 29.5879H150.995C150.637 30.8229 149.947 31.852 148.927 32.6754C147.925 33.4808 146.636 33.8835 145.061 33.8835ZM145.061 21.829C143.987 21.829 143.03 22.1601 142.189 22.8223C141.365 23.4667 140.891 24.4153 140.766 25.6682H149.142C149.088 24.469 148.677 23.5293 147.907 22.8492C147.137 22.169 146.189 21.829 145.061 21.829ZM154.909 33.5613L151.016 20.2449H153.271L156.09 30.6886L159.205 20.2449H161.755L164.896 30.6886L167.688 20.2449H169.971L166.078 33.5613H163.769L160.493 22.5807L157.218 33.5613H154.909ZM183.463 33.8835C182.371 33.8835 181.396 33.6598 180.537 33.2123C179.695 32.7649 179.051 32.1384 178.604 31.333L178.389 33.5613H176.348V14.2311H178.604V22.4464C179.033 21.8021 179.642 21.2204 180.429 20.7014C181.235 20.1823 182.255 19.9228 183.49 19.9228C184.814 19.9228 185.969 20.227 186.953 20.8356C187.938 21.4441 188.698 22.2764 189.235 23.3324C189.79 24.3884 190.067 25.5876 190.067 26.93C190.067 28.2724 189.79 29.4716 189.235 30.5276C188.698 31.5657 187.929 32.389 186.926 32.9975C185.942 33.5882 184.787 33.8835 183.463 33.8835ZM183.221 31.9236C184.116 31.9236 184.904 31.7178 185.584 31.3061C186.264 30.8766 186.801 30.2859 187.195 29.5342C187.588 28.7825 187.785 27.9055 187.785 26.9031C187.785 25.9008 187.588 25.0238 187.195 24.2721C186.801 23.5203 186.264 22.9386 185.584 22.527C184.904 22.0974 184.116 21.8826 183.221 21.8826C182.326 21.8826 181.539 22.0974 180.859 22.527C180.179 22.9386 179.642 23.5203 179.248 24.2721C178.854 25.0238 178.657 25.9008 178.657 26.9031C178.657 27.9055 178.854 28.7825 179.248 29.5342C179.642 30.2859 180.179 30.8766 180.859 31.3061C181.539 31.7178 182.326 31.9236 183.221 31.9236ZM197.583 33.8835C196.312 33.8835 195.184 33.5971 194.2 33.0244C193.216 32.4337 192.437 31.6194 191.864 30.5813C191.309 29.5432 191.032 28.3171 191.032 26.9031C191.032 25.5071 191.309 24.29 191.864 23.2519C192.419 22.1959 193.189 21.3815 194.173 20.8087C195.176 20.2181 196.33 19.9228 197.637 19.9228C198.925 19.9228 200.035 20.2181 200.966 20.8087C201.914 21.3815 202.639 22.1422 203.14 23.0908C203.641 24.0394 203.892 25.0596 203.892 26.1514C203.892 26.3483 203.883 26.5452 203.865 26.7421C203.865 26.9389 203.865 27.1627 203.865 27.4132H193.26C193.314 28.4335 193.547 29.2836 193.958 29.9638C194.388 30.626 194.916 31.1272 195.542 31.4672C196.187 31.8073 196.867 31.9773 197.583 31.9773C198.514 31.9773 199.292 31.7626 199.919 31.333C200.545 30.9034 201.001 30.3217 201.288 29.5879H203.516C203.158 30.8229 202.469 31.852 201.449 32.6754C200.447 33.4808 199.158 33.8835 197.583 33.8835ZM197.583 21.829C196.509 21.829 195.551 22.1601 194.71 22.8223C193.887 23.4667 193.413 24.4153 193.287 25.6682H201.664C201.61 24.469 201.198 23.5293 200.429 22.8492C199.659 22.169 198.71 21.829 197.583 21.829ZM210.087 33.5613C208.87 33.5613 207.912 33.266 207.214 32.6754C206.516 32.0847 206.167 31.0198 206.167 29.4805V22.1511H203.858V20.2449H206.167L206.462 17.0501H208.422V20.2449H212.342V22.1511H208.422V29.4805C208.422 30.3217 208.592 30.8945 208.932 31.1988C209.272 31.4851 209.872 31.6283 210.731 31.6283H212.127V33.5613H210.087ZM218.858 33.5613C217.641 33.5613 216.684 33.266 215.986 32.6754C215.288 32.0847 214.939 31.0198 214.939 29.4805V22.1511H212.63V20.2449H214.939L215.234 17.0501H217.194V20.2449H221.113V22.1511H217.194V29.4805C217.194 30.3217 217.364 30.8945 217.704 31.1988C218.044 31.4851 218.644 31.6283 219.503 31.6283H220.899V33.5613H218.858ZM227.988 33.8835C226.717 33.8835 225.589 33.5971 224.605 33.0244C223.621 32.4337 222.842 31.6194 222.269 30.5813C221.714 29.5432 221.437 28.3171 221.437 26.9031C221.437 25.5071 221.714 24.29 222.269 23.2519C222.824 22.1959 223.594 21.3815 224.578 20.8087C225.58 20.2181 226.735 19.9228 228.041 19.9228C229.33 19.9228 230.44 20.2181 231.371 20.8087C232.319 21.3815 233.044 22.1422 233.545 23.0908C234.046 24.0394 234.297 25.0596 234.297 26.1514C234.297 26.3483 234.288 26.5452 234.27 26.7421C234.27 26.9389 234.27 27.1627 234.27 27.4132H223.665C223.719 28.4335 223.952 29.2836 224.363 29.9638C224.793 30.626 225.321 31.1272 225.947 31.4672C226.592 31.8073 227.272 31.9773 227.988 31.9773C228.918 31.9773 229.697 31.7626 230.323 31.333C230.95 30.9034 231.406 30.3217 231.693 29.5879H233.921C233.563 30.8229 232.874 31.852 231.854 32.6754C230.851 33.4808 229.563 33.8835 227.988 33.8835ZM227.988 21.829C226.914 21.829 225.956 22.1601 225.115 22.8223C224.292 23.4667 223.817 24.4153 223.692 25.6682H232.069C232.015 24.469 231.603 23.5293 230.834 22.8492C230.064 22.169 229.115 21.829 227.988 21.829ZM235.675 33.5613V20.2449H237.716L237.903 22.7955C238.315 21.9184 238.942 21.2204 239.783 20.7014C240.624 20.1823 241.662 19.9228 242.897 19.9228V22.2854H242.28C241.492 22.2854 240.767 22.4285 240.105 22.7149C239.443 22.9834 238.915 23.4488 238.521 24.111C238.127 24.7732 237.93 25.6861 237.93 26.8494V33.5613H235.675Z" fill="white"/>
</svg>
